<mxfile host="Electron" modified="2023-06-16T14:14:04.912Z" agent="Mozilla/5.0 (Windows NT 10.0; Win64; x64) AppleWebKit/537.36 (KHTML, like Gecko) draw.io/21.2.8 Chrome/112.0.5615.165 Electron/24.2.0 Safari/537.36" etag="BR-PfQZtFso_dlMFEAWS" version="21.2.8" type="device">
  <diagram name="Seite-1" id="OSrJ9C7gy27yA4mrr-95">
    <mxGraphModel dx="934" dy="1887" grid="1" gridSize="10" guides="1" tooltips="1" connect="1" arrows="1" fold="1" page="1" pageScale="1" pageWidth="827" pageHeight="1169" math="0" shadow="0">
      <root>
        <mxCell id="0" />
        <mxCell id="1" parent="0" />
        <mxCell id="ObSRyilXhQ6y23vNTTip-1" value="MeowMed &lt;br&gt;System" style="rounded=0;whiteSpace=wrap;html=1;verticalAlign=top;" vertex="1" parent="1">
          <mxGeometry x="625" y="-590" width="690" height="400" as="geometry" />
        </mxCell>
        <mxCell id="ObSRyilXhQ6y23vNTTip-2" value="MeowMed UI" style="rounded=0;whiteSpace=wrap;html=1;" vertex="1" parent="1">
          <mxGeometry x="660" y="-530" width="620" height="30" as="geometry" />
        </mxCell>
        <mxCell id="ObSRyilXhQ6y23vNTTip-3" value="Notification Service" style="rounded=0;whiteSpace=wrap;html=1;" vertex="1" parent="1">
          <mxGeometry x="635" y="-380" width="70" height="30" as="geometry" />
        </mxCell>
        <mxCell id="ObSRyilXhQ6y23vNTTip-4" value="Customer service" style="rounded=0;whiteSpace=wrap;html=1;" vertex="1" parent="1">
          <mxGeometry x="780" y="-400" width="70" height="60" as="geometry" />
        </mxCell>
        <mxCell id="ObSRyilXhQ6y23vNTTip-5" value="Policy service" style="rounded=0;whiteSpace=wrap;html=1;" vertex="1" parent="1">
          <mxGeometry x="980" y="-400" width="70" height="60" as="geometry" />
        </mxCell>
        <mxCell id="ObSRyilXhQ6y23vNTTip-6" value="Billing Service" style="rounded=0;whiteSpace=wrap;html=1;" vertex="1" parent="1">
          <mxGeometry x="1190" y="-400" width="90" height="70" as="geometry" />
        </mxCell>
        <mxCell id="ObSRyilXhQ6y23vNTTip-7" value="" style="shape=cylinder3;whiteSpace=wrap;html=1;boundedLbl=1;backgroundOutline=1;size=1.6543059172450398;" vertex="1" parent="1">
          <mxGeometry x="855" y="-350" width="10" height="10" as="geometry" />
        </mxCell>
        <mxCell id="ObSRyilXhQ6y23vNTTip-8" value="Kunden&lt;br&gt;anlegen, updaten, lesen" style="edgeStyle=orthogonalEdgeStyle;rounded=0;orthogonalLoop=1;jettySize=auto;html=1;exitX=0.25;exitY=1;exitDx=0;exitDy=0;entryX=0.5;entryY=0;entryDx=0;entryDy=0;" edge="1" parent="1" source="ObSRyilXhQ6y23vNTTip-2" target="ObSRyilXhQ6y23vNTTip-4">
          <mxGeometry x="0.2" y="-5" relative="1" as="geometry">
            <mxPoint x="725" y="-365" as="sourcePoint" />
            <mxPoint x="615" y="-380" as="targetPoint" />
            <mxPoint as="offset" />
          </mxGeometry>
        </mxCell>
        <mxCell id="ObSRyilXhQ6y23vNTTip-9" value="VertrÃ¤ge&lt;br&gt;anlegen, updaten, lesen" style="edgeStyle=orthogonalEdgeStyle;rounded=0;orthogonalLoop=1;jettySize=auto;html=1;exitX=0.5;exitY=1;exitDx=0;exitDy=0;entryX=0.5;entryY=0;entryDx=0;entryDy=0;" edge="1" parent="1" source="ObSRyilXhQ6y23vNTTip-2" target="ObSRyilXhQ6y23vNTTip-5">
          <mxGeometry relative="1" as="geometry">
            <mxPoint x="865" y="-450" as="sourcePoint" />
            <mxPoint x="850" y="-380" as="targetPoint" />
            <mxPoint as="offset" />
          </mxGeometry>
        </mxCell>
        <mxCell id="ObSRyilXhQ6y23vNTTip-10" value="Buchungsliste abfragen" style="edgeStyle=orthogonalEdgeStyle;rounded=0;orthogonalLoop=1;jettySize=auto;html=1;exitX=0.906;exitY=1.144;exitDx=0;exitDy=0;entryX=0.5;entryY=0;entryDx=0;entryDy=0;exitPerimeter=0;" edge="1" parent="1" source="ObSRyilXhQ6y23vNTTip-2" target="ObSRyilXhQ6y23vNTTip-6">
          <mxGeometry x="0.3338" relative="1" as="geometry">
            <mxPoint x="945" y="-490" as="sourcePoint" />
            <mxPoint x="964" y="-380" as="targetPoint" />
            <mxPoint as="offset" />
          </mxGeometry>
        </mxCell>
        <mxCell id="ObSRyilXhQ6y23vNTTip-11" value="Kundendaten" style="edgeStyle=orthogonalEdgeStyle;rounded=0;orthogonalLoop=1;jettySize=auto;html=1;exitX=0;exitY=0.5;exitDx=0;exitDy=0;entryX=1;entryY=0.5;entryDx=0;entryDy=0;" edge="1" parent="1" source="ObSRyilXhQ6y23vNTTip-5" target="ObSRyilXhQ6y23vNTTip-4">
          <mxGeometry x="0.0476" y="-15" relative="1" as="geometry">
            <mxPoint x="1081" y="-490" as="sourcePoint" />
            <mxPoint x="1200" y="-370" as="targetPoint" />
            <mxPoint as="offset" />
          </mxGeometry>
        </mxCell>
        <mxCell id="ObSRyilXhQ6y23vNTTip-12" value="Kundendaten" style="edgeStyle=orthogonalEdgeStyle;rounded=0;orthogonalLoop=1;jettySize=auto;html=1;exitX=0;exitY=0.5;exitDx=0;exitDy=0;entryX=1;entryY=0.5;entryDx=0;entryDy=0;" edge="1" parent="1" source="ObSRyilXhQ6y23vNTTip-4" target="ObSRyilXhQ6y23vNTTip-3">
          <mxGeometry x="0.0476" y="-15" relative="1" as="geometry">
            <mxPoint x="990" y="-355" as="sourcePoint" />
            <mxPoint x="885" y="-355" as="targetPoint" />
            <mxPoint as="offset" />
          </mxGeometry>
        </mxCell>
        <mxCell id="ObSRyilXhQ6y23vNTTip-13" value="Vertragsdaten" style="edgeStyle=orthogonalEdgeStyle;rounded=0;orthogonalLoop=1;jettySize=auto;html=1;exitX=0.5;exitY=1;exitDx=0;exitDy=0;entryX=0.5;entryY=1;entryDx=0;entryDy=0;" edge="1" parent="1" source="ObSRyilXhQ6y23vNTTip-5" target="ObSRyilXhQ6y23vNTTip-3">
          <mxGeometry x="0.0476" y="-15" relative="1" as="geometry">
            <mxPoint x="990" y="-355" as="sourcePoint" />
            <mxPoint x="885" y="-355" as="targetPoint" />
            <mxPoint as="offset" />
            <Array as="points">
              <mxPoint x="1015" y="-290" />
              <mxPoint x="670" y="-290" />
            </Array>
          </mxGeometry>
        </mxCell>
        <mxCell id="ObSRyilXhQ6y23vNTTip-14" value="" style="shape=cylinder3;whiteSpace=wrap;html=1;boundedLbl=1;backgroundOutline=1;size=1.6543059172450398;" vertex="1" parent="1">
          <mxGeometry x="1035" y="-350" width="10" height="10" as="geometry" />
        </mxCell>
        <mxCell id="ObSRyilXhQ6y23vNTTip-15" value="" style="shape=cylinder3;whiteSpace=wrap;html=1;boundedLbl=1;backgroundOutline=1;size=1.6543059172450398;" vertex="1" parent="1">
          <mxGeometry x="1215" y="-350" width="10" height="10" as="geometry" />
        </mxCell>
        <mxCell id="ObSRyilXhQ6y23vNTTip-16" value="Vertragsdaten" style="edgeStyle=orthogonalEdgeStyle;rounded=0;orthogonalLoop=1;jettySize=auto;html=1;exitX=0;exitY=0.5;exitDx=0;exitDy=0;entryX=1;entryY=0.5;entryDx=0;entryDy=0;" edge="1" parent="1" source="ObSRyilXhQ6y23vNTTip-6" target="ObSRyilXhQ6y23vNTTip-5">
          <mxGeometry x="0.0476" y="-15" relative="1" as="geometry">
            <mxPoint x="1025" y="-325" as="sourcePoint" />
            <mxPoint x="680" y="-340" as="targetPoint" />
            <mxPoint as="offset" />
            <Array as="points">
              <mxPoint x="1105" y="-365" />
              <mxPoint x="1105" y="-365" />
            </Array>
          </mxGeometry>
        </mxCell>
        <mxCell id="ObSRyilXhQ6y23vNTTip-17" value="Kundendaten" style="edgeStyle=orthogonalEdgeStyle;rounded=0;orthogonalLoop=1;jettySize=auto;html=1;exitX=0.5;exitY=1;exitDx=0;exitDy=0;entryX=1;entryY=1;entryDx=0;entryDy=0;" edge="1" parent="1" source="ObSRyilXhQ6y23vNTTip-6" target="ObSRyilXhQ6y23vNTTip-4">
          <mxGeometry x="0.0476" y="-15" relative="1" as="geometry">
            <mxPoint x="990" y="-355" as="sourcePoint" />
            <mxPoint x="885" y="-355" as="targetPoint" />
            <mxPoint as="offset" />
            <Array as="points">
              <mxPoint x="1190" y="-260" />
              <mxPoint x="875" y="-260" />
            </Array>
          </mxGeometry>
        </mxCell>
        <mxCell id="ObSRyilXhQ6y23vNTTip-19" value="MeowMed&lt;br&gt;System" style="rounded=0;whiteSpace=wrap;html=1;verticalAlign=top;" vertex="1" parent="1">
          <mxGeometry x="570" y="-1140" width="800" height="470" as="geometry" />
        </mxCell>
        <mxCell id="ObSRyilXhQ6y23vNTTip-20" value="MeoMed UI" style="rounded=1;whiteSpace=wrap;html=1;" vertex="1" parent="1">
          <mxGeometry x="600" y="-1090" width="730" height="60" as="geometry" />
        </mxCell>
        <mxCell id="ObSRyilXhQ6y23vNTTip-21" value="Notification Service" style="rounded=1;whiteSpace=wrap;html=1;" vertex="1" parent="1">
          <mxGeometry x="905" y="-790" width="120" height="70" as="geometry" />
        </mxCell>
        <mxCell id="ObSRyilXhQ6y23vNTTip-25" value="" style="edgeStyle=orthogonalEdgeStyle;rounded=0;orthogonalLoop=1;jettySize=auto;html=1;exitX=0.25;exitY=1;exitDx=0;exitDy=0;" edge="1" parent="1" source="ObSRyilXhQ6y23vNTTip-20" target="ObSRyilXhQ6y23vNTTip-22">
          <mxGeometry relative="1" as="geometry" />
        </mxCell>
        <mxCell id="ObSRyilXhQ6y23vNTTip-47" value="Kunden&lt;br&gt;anlegen, updaten, lesen" style="edgeLabel;html=1;align=center;verticalAlign=middle;resizable=0;points=[];" vertex="1" connectable="0" parent="ObSRyilXhQ6y23vNTTip-25">
          <mxGeometry x="-0.3924" y="-1" relative="1" as="geometry">
            <mxPoint x="-1" as="offset" />
          </mxGeometry>
        </mxCell>
        <mxCell id="ObSRyilXhQ6y23vNTTip-41" value="Kundendaten" style="edgeStyle=orthogonalEdgeStyle;rounded=0;orthogonalLoop=1;jettySize=auto;html=1;exitX=0;exitY=0.5;exitDx=0;exitDy=0;entryX=0.5;entryY=1;entryDx=0;entryDy=0;" edge="1" parent="1" source="ObSRyilXhQ6y23vNTTip-21" target="ObSRyilXhQ6y23vNTTip-22">
          <mxGeometry relative="1" as="geometry" />
        </mxCell>
        <mxCell id="ObSRyilXhQ6y23vNTTip-22" value="Customer Service" style="rounded=1;whiteSpace=wrap;html=1;" vertex="1" parent="1">
          <mxGeometry x="600" y="-930" width="120" height="70" as="geometry" />
        </mxCell>
        <mxCell id="ObSRyilXhQ6y23vNTTip-26" value="VertrÃ¤ge&lt;br&gt;anlegen, updaten, lesen" style="edgeStyle=orthogonalEdgeStyle;rounded=0;orthogonalLoop=1;jettySize=auto;html=1;" edge="1" parent="1" source="ObSRyilXhQ6y23vNTTip-20" target="ObSRyilXhQ6y23vNTTip-23">
          <mxGeometry relative="1" as="geometry" />
        </mxCell>
        <mxCell id="ObSRyilXhQ6y23vNTTip-28" style="edgeStyle=orthogonalEdgeStyle;rounded=0;orthogonalLoop=1;jettySize=auto;html=1;exitX=0;exitY=0.5;exitDx=0;exitDy=0;entryX=1;entryY=0.5;entryDx=0;entryDy=0;" edge="1" parent="1" source="ObSRyilXhQ6y23vNTTip-23" target="ObSRyilXhQ6y23vNTTip-22">
          <mxGeometry relative="1" as="geometry" />
        </mxCell>
        <mxCell id="ObSRyilXhQ6y23vNTTip-42" value="Vertragsdaten" style="edgeStyle=orthogonalEdgeStyle;rounded=0;orthogonalLoop=1;jettySize=auto;html=1;exitX=0.5;exitY=0;exitDx=0;exitDy=0;entryX=0.5;entryY=1;entryDx=0;entryDy=0;" edge="1" parent="1" source="ObSRyilXhQ6y23vNTTip-21" target="ObSRyilXhQ6y23vNTTip-23">
          <mxGeometry relative="1" as="geometry" />
        </mxCell>
        <mxCell id="ObSRyilXhQ6y23vNTTip-23" value="Policy Service" style="rounded=1;whiteSpace=wrap;html=1;" vertex="1" parent="1">
          <mxGeometry x="905" y="-930" width="120" height="70" as="geometry" />
        </mxCell>
        <mxCell id="ObSRyilXhQ6y23vNTTip-27" value="Buchungsliste abfragen" style="edgeStyle=orthogonalEdgeStyle;rounded=0;orthogonalLoop=1;jettySize=auto;html=1;exitX=0.75;exitY=1;exitDx=0;exitDy=0;" edge="1" parent="1" source="ObSRyilXhQ6y23vNTTip-20" target="ObSRyilXhQ6y23vNTTip-24">
          <mxGeometry relative="1" as="geometry" />
        </mxCell>
        <mxCell id="ObSRyilXhQ6y23vNTTip-29" value="Vertragsdaten" style="edgeStyle=orthogonalEdgeStyle;rounded=0;orthogonalLoop=1;jettySize=auto;html=1;exitX=0;exitY=0.5;exitDx=0;exitDy=0;entryX=1;entryY=0.5;entryDx=0;entryDy=0;" edge="1" parent="1" source="ObSRyilXhQ6y23vNTTip-24" target="ObSRyilXhQ6y23vNTTip-23">
          <mxGeometry relative="1" as="geometry" />
        </mxCell>
        <mxCell id="ObSRyilXhQ6y23vNTTip-48" value="Kundendaten" style="edgeStyle=orthogonalEdgeStyle;rounded=0;orthogonalLoop=1;jettySize=auto;html=1;exitX=0.75;exitY=1;exitDx=0;exitDy=0;entryX=0.25;entryY=1;entryDx=0;entryDy=0;" edge="1" parent="1" source="ObSRyilXhQ6y23vNTTip-24" target="ObSRyilXhQ6y23vNTTip-22">
          <mxGeometry relative="1" as="geometry">
            <Array as="points">
              <mxPoint x="1300" y="-700" />
              <mxPoint x="630" y="-700" />
            </Array>
          </mxGeometry>
        </mxCell>
        <mxCell id="ObSRyilXhQ6y23vNTTip-24" value="Billing Service" style="rounded=1;whiteSpace=wrap;html=1;" vertex="1" parent="1">
          <mxGeometry x="1210" y="-930" width="120" height="70" as="geometry" />
        </mxCell>
      </root>
    </mxGraphModel>
  </diagram>
</mxfile>
